<?xml version="1.0" encoding="utf-8"?>
<!-- Generator: Adobe Illustrator 16.0.0, SVG Export Plug-In . SVG Version: 6.00 Build 0)  -->
<!DOCTYPE svg PUBLIC "-//W3C//DTD SVG 1.1//EN" "http://www.w3.org/Graphics/SVG/1.1/DTD/svg11.dtd">
<svg version="1.1" id="Vrstva_1" xmlns="http://www.w3.org/2000/svg" xmlns:xlink="http://www.w3.org/1999/xlink" x="0px" y="0px"
	 width="283.465px" height="113.386px" viewBox="0 0 283.465 113.386" enable-background="new 0 0 283.465 113.386"
	 xml:space="preserve">
<!--<rect x="0" y="0" width="283.465" height="113.386" fill="black"/>-->
<g>
	<g>
		<path fill="#FFFFFF" stroke="#FFFFFF" stroke-width="0.4788" stroke-miterlimit="10" d="M207.834,62.28h-6.036v-5.871
			c0-1.697-0.795-2.547-2.382-2.547c-1.625,0-2.436,0.85-2.436,2.547v5.871h-6.038c-1.587,0-2.381,0.832-2.381,2.492
			c0,1.736,0.794,2.604,2.381,2.604h6.038v5.925c0,1.7,0.792,2.549,2.38,2.549c1.625,0,2.438-0.849,2.438-2.549v-5.925h6.036
			c1.587,0,2.381-0.849,2.381-2.548C210.216,63.13,209.421,62.28,207.834,62.28z"/>
		<path fill="#FFFFFF" stroke="#FFFFFF" stroke-width="0.4788" stroke-miterlimit="10" d="M237.021,62.28h-6.036v-5.871
			c0-1.697-0.795-2.547-2.381-2.547c-1.625,0-2.437,0.85-2.437,2.547v5.871h-6.037c-1.588,0-2.382,0.832-2.382,2.492
			c0,1.736,0.794,2.604,2.382,2.604h6.037v5.925c0,1.7,0.794,2.549,2.38,2.549c1.625,0,2.438-0.849,2.438-2.549v-5.925h6.036
			c1.586,0,2.382-0.849,2.382-2.548C239.402,63.13,238.607,62.28,237.021,62.28z"/>
	</g>
	<path fill="#FFFFFF" d="M172.119,42.027h-0.004c-0.112,0-0.223,0.004-0.317,0.011c-0.003,0-0.007,0.001-0.01,0.001
		c-0.001,0-0.002,0-0.003,0c-0.004,0-0.013,0.002-0.018,0.002c-0.028,0.002-0.055,0.004-0.084,0.007l-0.031,0.003
		c-0.026,0.003-0.047,0.006-0.072,0.009c-0.039,0.004-0.078,0.008-0.116,0.013c-0.023,0.004-0.052,0.009-0.079,0.013
		c-0.012,0.002-0.024,0.004-0.037,0.006l-0.016,0.003l-0.027,0.004c-0.04,0.007-0.086,0.016-0.131,0.025
		c-0.006,0.001-0.013,0.002-0.019,0.003c-0.02,0.004-0.048,0.011-0.073,0.017c-0.01,0.003-0.021,0.005-0.031,0.007l-0.008,0.002
		c-0.004,0.001-0.005,0.001-0.009,0.002l-0.003,0.001l-0.014,0.003c-0.019,0.005-0.03,0.008-0.046,0.012
		c-0.042,0.011-0.086,0.021-0.118,0.029c-0.011,0.003-0.026,0.008-0.037,0.012c-0.027,0.008-0.058,0.017-0.094,0.027
		c-0.005,0.002-0.008,0.003-0.013,0.005c0,0-0.001,0-0.002,0c-0.053,0.017-0.107,0.033-0.166,0.054
		c-0.042,0.016-0.084,0.031-0.14,0.053c-0.021,0.008-0.041,0.017-0.062,0.025c-0.027,0.011-0.059,0.022-0.083,0.033
		c-0.022,0.01-0.041,0.019-0.061,0.027c-0.025,0.011-0.05,0.021-0.075,0.033c-0.051,0.024-0.102,0.048-0.144,0.069
		c-0.044,0.023-0.088,0.046-0.137,0.072s-0.097,0.055-0.137,0.078c-0.038,0.022-0.073,0.045-0.106,0.065
		c-0.01,0.006-0.018,0.011-0.027,0.017c-0.034,0.021-0.08,0.053-0.126,0.084c-0.04,0.027-0.079,0.056-0.119,0.084
		c-0.037,0.026-0.079,0.059-0.121,0.092c-0.017,0.014-0.025,0.021-0.04,0.032c-0.025,0.02-0.052,0.04-0.076,0.061
		c-0.008,0.007-0.015,0.013-0.022,0.02c-0.021,0.018-0.043,0.036-0.065,0.056l-0.064,0.058c-0.027,0.025-0.056,0.051-0.083,0.077
		c-0.037,0.035-0.08,0.077-0.122,0.121c-0.031,0.031-0.057,0.06-0.084,0.088c-0.041,0.043-0.075,0.084-0.11,0.124l-0.028,0.033
		c-0.019,0.021-0.045,0.052-0.07,0.084c-0.035,0.043-0.078,0.101-0.12,0.157c-0.025,0.032-0.042,0.055-0.058,0.077
		c-0.029,0.041-0.087,0.133-0.151,0.234l-0.001,0.001c-0.016,0.024-0.032,0.051-0.048,0.076c-0.113,0.182-0.233,0.378-0.265,0.435
		l-0.01,0.019c-0.001,0.002-0.004,0.007-0.005,0.009l-3.24,6.04l-6.795,12.665L150.95,50.83l-3.24-6.04
		c-0.001-0.002-0.004-0.007-0.005-0.009l-0.01-0.019c-0.032-0.057-0.152-0.253-0.265-0.435c-0.016-0.025-0.032-0.052-0.048-0.076
		l-0.001-0.001c-0.064-0.102-0.123-0.193-0.151-0.234c-0.016-0.022-0.033-0.045-0.058-0.077c-0.042-0.057-0.085-0.114-0.12-0.157
		c-0.025-0.032-0.052-0.063-0.07-0.084l-0.028-0.033c-0.035-0.04-0.07-0.081-0.11-0.124c-0.027-0.028-0.053-0.057-0.084-0.088
		c-0.042-0.044-0.085-0.086-0.122-0.121c-0.027-0.026-0.056-0.052-0.083-0.077l-0.064-0.058c-0.022-0.02-0.044-0.038-0.065-0.056
		c-0.008-0.007-0.015-0.013-0.022-0.02c-0.024-0.021-0.051-0.041-0.076-0.061c-0.014-0.012-0.023-0.019-0.04-0.032
		c-0.042-0.033-0.083-0.065-0.121-0.092c-0.04-0.028-0.079-0.057-0.119-0.084c-0.046-0.031-0.092-0.063-0.126-0.084
		c-0.01-0.006-0.018-0.011-0.027-0.017c-0.033-0.021-0.068-0.043-0.106-0.065c-0.041-0.023-0.089-0.052-0.137-0.078
		s-0.092-0.049-0.137-0.072c-0.042-0.021-0.093-0.045-0.144-0.069c-0.025-0.012-0.05-0.022-0.075-0.033
		c-0.02-0.009-0.038-0.018-0.061-0.027c-0.025-0.011-0.056-0.022-0.083-0.033c-0.021-0.009-0.041-0.018-0.062-0.025
		c-0.056-0.021-0.098-0.037-0.14-0.053c-0.059-0.021-0.112-0.037-0.166-0.054c-0.001,0-0.001,0-0.002,0
		c-0.005-0.002-0.008-0.003-0.013-0.005c-0.036-0.011-0.066-0.02-0.094-0.027c-0.011-0.004-0.026-0.009-0.037-0.012
		c-0.031-0.008-0.075-0.019-0.118-0.029c-0.017-0.004-0.028-0.007-0.046-0.012l-0.014-0.003l-0.003-0.001
		c-0.004-0.001-0.005-0.001-0.009-0.002l-0.008-0.002c-0.01-0.002-0.021-0.004-0.031-0.007c-0.025-0.006-0.053-0.013-0.073-0.017
		c-0.006-0.001-0.013-0.002-0.019-0.003c-0.045-0.01-0.092-0.019-0.131-0.025l-0.027-0.004l-0.016-0.003
		c-0.012-0.002-0.024-0.004-0.037-0.006c-0.027-0.004-0.055-0.009-0.079-0.013c-0.038-0.005-0.077-0.009-0.116-0.013
		c-0.025-0.003-0.046-0.006-0.072-0.009l-0.031-0.003c-0.029-0.003-0.056-0.005-0.084-0.007c-0.005,0-0.014-0.002-0.018-0.002
		c-0.001,0-0.002,0-0.003,0c-0.003,0-0.007-0.001-0.01-0.001c-0.094-0.007-0.205-0.011-0.317-0.011h-0.004h-1.557v45.655h0.007
		v0.001l1.556-0.001c2.271-0.002,4.171-1.605,4.61-3.729c0.063-0.303,0.096-0.617,0.096-0.938V58.6l0.686,1.271l1.017,1.885
		l5.038,9.425l0.106,0.199c0.2,0.396,0.461,0.706,0.748,0.954c0.629,0.548,1.392,0.771,2.021,0.771h0.013c0.002,0,0.005,0,0.007,0
		h0.027h0.027c0.002,0,0.005,0,0.007,0h0.013c0.629,0,1.392-0.224,2.021-0.771c0.287-0.248,0.548-0.558,0.748-0.954l0.106-0.199
		l5.038-9.425l1.017-1.885l0.686-1.271v24.416c0,0.321,0.033,0.636,0.096,0.938c0.439,2.123,2.34,3.727,4.61,3.729l1.556,0.001
		v-0.001h0.007V42.027H172.119z"/>
	<path fill="#FFFFFF" d="M88.949,86.022c-0.019-0.587-0.14-1.152-0.361-1.679c-0.021-0.053-0.046-0.104-0.063-0.137l-0.027-0.057
		c-0.033-0.073-0.067-0.146-0.106-0.217c-0.816-1.522-2.389-2.469-4.104-2.469H65.965V46.762c0-2.57-2.113-4.664-4.711-4.667h-1.558
		v40.973c0,1.201,0.46,2.341,1.295,3.211c0.026,0.028,0.052,0.057,0.08,0.084c0.02,0.019,0.04,0.039,0.061,0.058
		c0.874,0.848,2.021,1.313,3.231,1.313h24.591v-1.562C88.954,86.122,88.953,86.073,88.949,86.022z"/>
	<path fill="#FFFFFF" d="M47.53,74.299c0-0.191-0.018-0.549-0.063-1.316c-0.046-0.722-0.169-1.563-0.366-2.505
		c-0.205-0.979-0.559-2.021-1.053-3.103c-0.513-1.117-1.216-2.172-2.1-3.148l-0.029-0.031c-2.124-2.17-4.936-3.271-8.361-3.271
		h-7.492c-1.843,0-3.185-0.476-4.107-1.46l-0.031-0.033c-0.387-0.386-0.687-0.82-0.893-1.293c-0.24-0.544-0.412-1.057-0.512-1.524
		c-0.104-0.484-0.165-0.902-0.181-1.242c-0.027-0.549-0.028-0.684-0.028-0.684v-0.125c0-0.701,0.05-1.303,0.15-1.786
		c0.101-0.488,0.275-1.024,0.52-1.597c0.202-0.479,0.52-0.938,0.956-1.374l0.024-0.024c0.888-0.947,2.229-1.409,4.102-1.409h16.237
		l-0.002-1.56c-0.001-0.475-0.071-0.942-0.208-1.39c-0.608-1.985-2.4-3.319-4.46-3.319H28.065c-3.594,0-6.494,1.126-8.621,3.349
		c-0.844,0.889-1.513,1.858-1.989,2.882c-0.447,0.965-0.779,1.895-0.986,2.765c-0.209,0.888-0.322,1.655-0.345,2.344
		c-0.021,0.592-0.031,0.989-0.031,1.181c0,0.195,0.011,0.583,0.031,1.151c0.022,0.672,0.136,1.43,0.346,2.316
		c0.207,0.873,0.538,1.803,0.985,2.761c0.476,1.026,1.145,1.996,1.982,2.877c2.125,2.268,5.026,3.417,8.628,3.417h7.417
		c0.049,0.005,0.096,0.007,0.14,0.007h0c1.659,0.012,2.902,0.468,3.79,1.386c0.448,0.48,0.803,1.012,1.056,1.579
		c0.279,0.628,0.48,1.231,0.601,1.794c0.122,0.575,0.193,1.073,0.211,1.476c0.025,0.635,0.029,0.806,0.029,0.851v0.183
		c0,0.043-0.006,0.145-0.012,0.277l-0.003,0.068l0.003,0.065c0.006,0.156,0.012,0.275,0.012,0.318v0.124
		c0,0.627-0.047,1.189-0.137,1.673c-0.01,0.048-0.017,0.102-0.023,0.155c-0.102,0.477-0.273,0.999-0.51,1.556
		c-0.202,0.479-0.52,0.937-0.951,1.368l-0.028,0.029c-0.891,0.95-2.176,1.427-3.914,1.457H22.358v-0.005l-1.56,0.002
		c-2.595,0.003-4.705,2.097-4.705,4.667v1.557h19.465c3.594,0,6.493-1.126,8.621-3.348c0.843-0.889,1.512-1.858,1.989-2.883
		c0.446-0.963,0.779-1.893,0.985-2.765c0.209-0.887,0.322-1.653,0.346-2.344c0.012-0.329,0.031-0.921,0.031-1.181
		c0-0.096-0.003-0.26-0.009-0.481C47.526,74.542,47.53,74.391,47.53,74.299z"/>
	<path fill="#FFFFFF" d="M123.951,45.151c-1.613-1.702-3.732-2.787-5.964-3.055l-0.042-0.006h-11.405l-0.085,0.006
		c-2.232,0.268-4.351,1.353-5.965,3.055c-1.872,1.975-2.902,4.565-2.902,7.295l0.007,35.237l1.556-0.001
		c2.595-0.003,4.706-2.097,4.706-4.667V68.902h16.73v14.113c0,2.57,2.111,4.664,4.708,4.667h1.561V52.446
		C126.855,49.717,125.824,47.126,123.951,45.151z M116.941,48.234c2.078,0.009,3.645,1.819,3.645,4.212v10.186h-16.73V52.446
		c0-2.391,1.565-4.201,3.642-4.212H116.941z"/>
	<g>
		<path fill="#FFFFFF" d="M267.372,54.465c0-15.886-13.636-28.813-30.394-28.813h-0.001c-1.304,0-2.361,1.058-2.361,2.362
			c0,1.303,1.057,2.36,2.361,2.36l0.001,0.009c14.009,0,25.402,10.801,25.402,24.081l0.008,0.004c0,1.377,1.115,2.493,2.492,2.493
			c1.376,0,2.492-1.116,2.492-2.493V54.465z"/>
		<path fill="#FFFFFF" d="M255.298,54.465c0-9.581-8.212-17.366-18.32-17.366h-0.001c-1.307,0-2.365,1.059-2.365,2.365
			c0,1.306,1.059,2.364,2.365,2.364l0.001,0.002c7.35,0,13.327,5.665,13.327,12.635l-0.001,0.004c0,1.379,1.117,2.498,2.497,2.498
			c1.379,0,2.497-1.119,2.497-2.498V54.465z"/>
	</g>
</g>
</svg>
